<?xml version="1.0" standalone="no"?>
<!DOCTYPE svg PUBLIC "-//W3C//DTD SVG 20010904//EN"
 "http://www.w3.org/TR/2001/REC-SVG-20010904/DTD/svg10.dtd">
<svg version="1.0" xmlns="http://www.w3.org/2000/svg"
 width="2500.000000pt" height="2500.000000pt" viewBox="0 0 2500.000000 2500.000000"
 preserveAspectRatio="xMidYMid meet">

<g transform="translate(0.000000,2500.000000) scale(0.100000,-0.100000)"
fill="#000000" stroke="none">
<path d="M4904 14234 c-63 -31 -64 -38 -64 -398 l0 -326 -1250 0 c-1374 0
-1292 4 -1325 -60 -19 -37 -19 -99 0 -127 8 -12 355 -284 770 -604 416 -321
754 -586 753 -590 -2 -4 -334 -262 -738 -574 -404 -311 -750 -581 -767 -600
-26 -28 -33 -43 -33 -76 0 -22 8 -54 17 -70 38 -64 -120 -59 2107 -57 l2026 3
32 33 33 32 3 335 3 335 6029 0 6029 0 3 -335 3 -335 33 -32 32 -33 2026 -3
c1861 -2 2028 -1 2060 14 42 20 64 59 64 114 0 32 -7 48 -32 75 -18 19 -364
289 -768 600 -404 312 -736 570 -738 574 -1 4 337 269 753 590 415 320 762
592 770 604 19 28 19 90 0 127 -33 64 49 60 -1325 60 l-1250 0 0 326 c0 362
-1 368 -66 399 -29 13 -857 15 -7596 15 -6715 0 -7566 -2 -7594 -16z m15014
-1366 l-3 -1133 -7415 0 -7415 0 -3 1133 -2 1132 7420 0 7420 0 -2 -1132z
m-15078 -453 c5 -776 6 -853 22 -877 11 -17 165 -104 496 -279 l479 -254 -773
-3 c-426 -1 -1122 -1 -1548 0 l-773 3 674 520 c387 298 681 532 689 547 8 15
14 46 14 69 0 33 -6 47 -32 73 -18 17 -327 258 -685 535 -359 276 -655 507
-658 512 -4 6 392 8 1042 7 l1048 -3 5 -850z m17415 846 c-3 -5 -299 -236
-658 -513 -358 -276 -667 -517 -684 -534 -27 -26 -33 -40 -33 -73 0 -23 6 -54
14 -69 8 -15 302 -249 689 -547 l674 -520 -773 -3 c-426 -1 -1122 -1 -1548 0
l-773 3 480 254 c389 207 483 260 498 285 18 30 19 66 19 872 0 462 3 844 7
847 10 11 2095 8 2088 -2z m-16035 -1977 l0 -206 -42 25 c-24 13 -185 99 -359
191 -174 92 -325 173 -335 181 -17 13 28 14 359 15 l377 0 0 -206z m13304 196
c-5 -5 -138 -77 -294 -160 -157 -83 -322 -171 -367 -196 l-83 -44 0 205 0 205
377 0 c244 0 374 -3 367 -10z"/>
</g>
</svg>
